<svg width="32" height="17" viewBox="0 0 32 17" fill="none" xmlns="http://www.w3.org/2000/svg">
<path fill-rule="evenodd" clip-rule="evenodd" d="M23.8438 0.851913C23.7096 0.90759 23.5878 0.98919 23.4852 1.09204C23.3823 1.19463 23.3007 1.3165 23.245 1.45068C23.1894 1.58485 23.1607 1.7287 23.1607 1.87396C23.1607 2.01923 23.1894 2.16307 23.245 2.29725C23.3007 2.43143 23.3823 2.5533 23.4852 2.65589L28.2271 7.39599H1.10441C0.811504 7.39599 0.530593 7.51235 0.323475 7.71947C0.116358 7.92659 0 8.2075 0 8.50041C0 8.79331 0.116358 9.07423 0.323475 9.28134C0.530593 9.48846 0.811504 9.60482 1.10441 9.60482H28.2271L23.4852 14.345C23.2778 14.5524 23.1613 14.8336 23.1613 15.1269C23.1613 15.4202 23.2778 15.7015 23.4852 15.9088C23.6926 16.1162 23.9738 16.2327 24.2671 16.2327C24.5604 16.2327 24.8416 16.1162 25.049 15.9088L31.6755 9.28236C31.7783 9.17977 31.8599 9.0579 31.9156 8.92372C31.9713 8.78955 32 8.64571 32 8.50044C32 8.35517 31.9713 8.21133 31.9156 8.07715C31.8599 7.94298 31.7783 7.82111 31.6755 7.71851L25.049 1.09204C24.9464 0.98919 24.8246 0.90759 24.6904 0.851913C24.5562 0.796236 24.4124 0.767578 24.2671 0.767578C24.1218 0.767578 23.978 0.796236 23.8438 0.851913Z" fill="black"/>
</svg>
