<svg width="25" height="26" viewBox="0 0 25 26" fill="none" xmlns="http://www.w3.org/2000/svg">
<g clip-path="url(#clip0_20671_78)">
<path d="M12.5 13C10.7812 13 9.30989 12.388 8.08594 11.1641C6.86198 9.9401 6.25 8.46875 6.25 6.75C6.25 5.03125 6.86198 3.5599 8.08594 2.33594C9.30989 1.11198 10.7812 0.5 12.5 0.5C14.2187 0.5 15.6901 1.11198 16.9141 2.33594C18.138 3.5599 18.75 5.03125 18.75 6.75C18.75 8.46875 18.138 9.9401 16.9141 11.1641C15.6901 12.388 14.2187 13 12.5 13ZM0 25.5V21.125C0 20.2396 0.228125 19.426 0.684375 18.6844C1.14063 17.9427 1.74583 17.376 2.5 16.9844C4.11458 16.1771 5.75521 15.5719 7.42187 15.1687C9.08854 14.7656 10.7812 14.5635 12.5 14.5625C14.2187 14.5615 15.9115 14.7635 17.5781 15.1687C19.2448 15.574 20.8854 16.1792 22.5 16.9844C23.2552 17.375 23.8609 17.9417 24.3172 18.6844C24.7734 19.4271 25.001 20.2406 25 21.125V25.5H0ZM3.125 22.375H21.875V21.125C21.875 20.8385 21.8036 20.5781 21.6609 20.3438C21.5182 20.1094 21.3292 19.9271 21.0937 19.7969C19.6875 19.0938 18.2682 18.5667 16.8359 18.2156C15.4036 17.8646 13.9583 17.6885 12.5 17.6875C11.0417 17.6865 9.59635 17.8625 8.16406 18.2156C6.73177 18.5688 5.3125 19.0958 3.90625 19.7969C3.67187 19.9271 3.48281 20.1094 3.33906 20.3438C3.19531 20.5781 3.12396 20.8385 3.125 21.125V22.375ZM12.5 9.875C13.3594 9.875 14.0953 9.56927 14.7078 8.95781C15.3203 8.34635 15.626 7.61042 15.625 6.75C15.624 5.88958 15.3182 5.15417 14.7078 4.54375C14.0974 3.93333 13.3615 3.62708 12.5 3.625C11.6385 3.62292 10.9031 3.92917 10.2937 4.54375C9.68437 5.15833 9.37812 5.89375 9.375 6.75C9.37187 7.60625 9.67812 8.34219 10.2937 8.95781C10.9094 9.57344 11.6448 9.87917 12.5 9.875Z" fill="#FED097"/>
</g>
<defs>
<clipPath id="clip0_20671_78">
<rect width="25" height="25" fill="white" transform="translate(0 0.5)"/>
</clipPath>
</defs>
</svg>
